<?xml version="1.0" encoding="UTF-8" standalone="no"?>
<!-- Created with Inkscape (http://www.inkscape.org/) -->

<svg
   xmlns:dc="http://purl.org/dc/elements/1.1/"
   xmlns:cc="http://creativecommons.org/ns#"
   xmlns:rdf="http://www.w3.org/1999/02/22-rdf-syntax-ns#"
   xmlns:svg="http://www.w3.org/2000/svg"
   xmlns="http://www.w3.org/2000/svg"
   xmlns:sodipodi="http://sodipodi.sourceforge.net/DTD/sodipodi-0.dtd"
   xmlns:inkscape="http://www.inkscape.org/namespaces/inkscape"
   width="64px"
   height="64px"
   id="svg31664"
   sodipodi:version="0.32"
   inkscape:version="0.47 r22583"
   sodipodi:docname="friend finder.svg"
   inkscape:output_extension="org.inkscape.output.svg.inkscape"
   inkscape:export-filename="friend finder.png"
   inkscape:export-xdpi="83.421135"
   inkscape:export-ydpi="83.421135"
   version="1.1">
  <defs
     id="defs31666">
    <inkscape:perspective
       sodipodi:type="inkscape:persp3d"
       inkscape:vp_x="0 : 32 : 1"
       inkscape:vp_y="0 : 1000 : 0"
       inkscape:vp_z="64 : 32 : 1"
       inkscape:persp3d-origin="32 : 21.333333 : 1"
       id="perspective18" />
  </defs>
  <sodipodi:namedview
     id="base"
     pagecolor="#ffffff"
     bordercolor="#666666"
     borderopacity="1.0"
     inkscape:pageopacity="0.0"
     inkscape:pageshadow="2"
     inkscape:zoom="5.5"
     inkscape:cx="-3.5454545"
     inkscape:cy="24.909091"
     inkscape:current-layer="g22759"
     showgrid="true"
     inkscape:document-units="px"
     inkscape:grid-bbox="true"
     inkscape:window-width="1440"
     inkscape:window-height="853"
     inkscape:window-x="-4"
     inkscape:window-y="-3"
     inkscape:window-maximized="1" />
  <metadata
     id="metadata31669">
    <rdf:RDF>
      <cc:Work
         rdf:about="">
        <dc:format>image/svg+xml</dc:format>
        <dc:type
           rdf:resource="http://purl.org/dc/dcmitype/StillImage" />
        <dc:title></dc:title>
      </cc:Work>
    </rdf:RDF>
  </metadata>
  <g
     id="layer1"
     inkscape:label="Layer 1"
     inkscape:groupmode="layer">
    <g
       id="g31652"
       transform="matrix(4.0000052,0,0,4.0000052,-1128.0015,-676.00096)">
      <rect
         ry="0.75961536"
         rx="0.75961536"
         y="169.4915"
         x="286.49152"
         height="11.017019"
         width="8.017004"
         id="rect29696"
         style="fill:#b5b5b5;fill-opacity:1;fill-rule:nonzero;stroke:#b5b5b5;stroke-width:0.98299026000000000;stroke-linecap:round;stroke-linejoin:round;stroke-miterlimit:4;stroke-opacity:1;stroke-dasharray:none;stroke-dashoffset:0" />
      <rect
         ry="0.75961536"
         rx="0.75961536"
         y="171.4915"
         x="284.49152"
         height="11.017019"
         width="8.017004"
         id="rect28725"
         style="fill:#898989;fill-opacity:1;fill-rule:nonzero;stroke:#898989;stroke-width:0.98299026000000000;stroke-linecap:round;stroke-linejoin:round;stroke-miterlimit:4;stroke-opacity:1;stroke-dasharray:none;stroke-dashoffset:0" />
      <g
         transform="translate(107.22728,114.13636)"
         id="g22759">
        <path
           style="fill:#444444;fill-opacity:1"
           d="m 185.28402,69.789768 0,-0.937499 -0.9375,0 -0.9375,0 0,-1.874997 0,-1.874998 0.9375,0 0.9375,0 0,-0.937498 0,-0.937499 1.875,0 1.87499,0 0,0.937499 0,0.937498 0.9375,0 0.9375,0 0,1.874998 0,1.874997 -0.9375,0 -0.9375,0 0,0.937499 0,0.937499 -1.87499,0 -1.875,0 0,-0.937499 z"
           id="path22757"
           sodipodi:nodetypes="ccccccccccccccccccccccccc" />
        <path
           style="fill:#ffffff;fill-opacity:1;stroke:#ffffff;stroke-width:0.27499965;stroke-linecap:round;stroke-linejoin:round;stroke-miterlimit:4;stroke-opacity:1;stroke-dasharray:none"
           d="m 185.18172,70.045454 0,-1 -1,0 -1,0 0,-2 0,-2 1,0 1,0 0,-1 0,-1 2,0 2,0 0,1 0,1 1,0 1,0 0,2 0,2 -1,0 -1,0 0,1 0,1 -2,0 -2,0 0,-1 z m 3,-1 0,-1 1,0 1,0 0,-1 0,-1 -1,0 -1,0 0,-1 0,-1 -1,0 -1,0 0,1 0,1 -1,0 -1,0 0,1 0,1 1,0 1,0 0,1 0,1 1,0 1,0 0,-1 z"
           id="path19848" />
      </g>
      <rect
         ry="0.75961536"
         rx="0.75961536"
         y="173.4915"
         x="282.49152"
         height="11.017019"
         width="8.017004"
         id="rect27708"
         style="fill:#444444;fill-opacity:1;fill-rule:nonzero;stroke:#444444;stroke-width:0.98299026000000000;stroke-linecap:round;stroke-linejoin:round;stroke-miterlimit:4;stroke-opacity:1;stroke-dasharray:none;stroke-dashoffset:0" />
      <rect
         ry="0"
         rx="0"
         y="175"
         x="284"
         height="6"
         width="5"
         id="rect27706"
         style="fill:#ffffff;fill-opacity:1;fill-rule:nonzero;stroke:#7d7d7d;stroke-width:0;stroke-linecap:round;stroke-linejoin:round;stroke-miterlimit:4;stroke-opacity:1;stroke-dasharray:none;stroke-dashoffset:0" />
      <path
         sodipodi:nodetypes="ccccccc"
         id="path18805"
         d="m 284.08585,180.41415 4.8283,0 0,-0.68383 c 0,-0.51179 -2.60047,-0.40218 -1.45616,-2.22245 0.69264,-2.5628 -2.42335,-2.5626 -1.73075,0 1.28114,1.82207 -1.64139,1.70266 -1.64139,2.22245 l 0,0.68383 z"
         style="fill:#b5b5b5;fill-opacity:1;fill-rule:evenodd;stroke:none" />
      <rect
         ry="0.95998985"
         rx="0"
         y="182"
         x="284"
         height="1"
         width="5"
         id="rect30681"
         style="opacity:1;fill:#ffffff;fill-opacity:1;fill-rule:nonzero;stroke:#b5b5b5;stroke-width:0;stroke-linecap:round;stroke-linejoin:round;stroke-miterlimit:4;stroke-dasharray:none;stroke-dashoffset:0;stroke-opacity:1" />
    </g>
  </g>
</svg>
